<svg width="144" height="68" viewBox="0 0 144 68" fill="none" xmlns="http://www.w3.org/2000/svg">
<path d="M72.0001 57.6915C59.0476 57.6915 48.5026 47.6336 48.5026 35.2635C48.5026 22.8934 59.0476 12.8426 72.0001 12.8426C84.9526 12.8426 95.4976 22.9005 95.4976 35.2706C95.4976 47.6408 84.9526 57.6915 72.0001 57.6915ZM72.0001 13.5585C59.4601 13.5585 49.2526 23.2942 49.2526 35.2706C49.2526 47.2471 59.4601 56.9756 72.0001 56.9756C84.5401 56.9756 94.7476 47.2399 94.7476 35.2635C94.7476 23.2871 84.5401 13.5585 72.0001 13.5585Z" fill="#E1B168"/>
<path d="M71.9999 61.9865C70.1024 61.9865 68.2049 61.8004 66.3599 61.4424C64.5599 61.0917 62.7899 60.5691 61.1024 59.889C59.4374 59.2161 57.8399 58.3857 56.3474 57.4265C54.8624 56.4744 53.4749 55.3719 52.2074 54.1621C50.9399 52.9523 49.7924 51.6208 48.7874 50.2105C48.6899 50.0674 48.7274 49.8741 48.8774 49.781C49.0274 49.688 49.2299 49.7238 49.3274 49.8669C50.3024 51.2485 51.4274 52.5514 52.6649 53.7326C53.9024 54.9138 55.2674 55.9876 56.7149 56.9182C58.1774 57.8631 59.7374 58.6721 61.3574 59.3235C63.0074 59.9892 64.7324 60.4975 66.4874 60.8411C70.0874 61.5427 73.9049 61.5427 77.5124 60.8411C79.2674 60.4975 80.9924 59.9892 82.6424 59.3235C84.2624 58.6721 85.8224 57.856 87.2849 56.9182C88.7324 55.9804 90.0974 54.9138 91.3349 53.7326C92.5724 52.5514 93.6974 51.2557 94.6724 49.8669C94.7699 49.7238 94.9724 49.688 95.1224 49.781C95.2724 49.8741 95.3099 50.0674 95.2124 50.2105C94.2074 51.6279 93.0599 52.9595 91.7924 54.1621C90.5249 55.3719 89.1374 56.4672 87.6524 57.4265C86.1599 58.3929 84.5549 59.2233 82.8974 59.889C81.2099 60.5691 79.4399 61.0917 77.6399 61.4424C75.7949 61.8004 73.8974 61.9865 71.9999 61.9865Z" fill="#E1B168"/>
<path d="M94.9424 20.8102C94.8374 20.8102 94.7399 20.76 94.6724 20.6741C93.6974 19.2925 92.5724 17.9897 91.3349 16.8085C90.0974 15.6273 88.7399 14.5535 87.2849 13.6229C85.8224 12.6779 84.2624 11.869 82.6424 11.2176C80.9924 10.5518 79.2674 10.0436 77.5124 9.69995C73.9124 8.9984 70.0949 8.9984 66.4874 9.69995C64.7324 10.0436 62.9999 10.5518 61.3574 11.2176C59.7374 11.8762 58.1699 12.6851 56.7149 13.6229C55.2674 14.5535 53.9024 15.6273 52.6649 16.8085C51.4274 17.9897 50.3024 19.2925 49.3274 20.6741C49.2299 20.8173 49.0274 20.8531 48.8774 20.76C48.7274 20.667 48.6899 20.4737 48.7874 20.3305C49.7924 18.9131 50.9399 17.5816 52.2074 16.379C53.4749 15.1691 54.8699 14.0739 56.3474 13.1146C57.8399 12.1482 59.4449 11.325 61.1024 10.652C62.7899 9.97197 64.5599 9.44939 66.3599 9.09146C70.0499 8.36844 73.9499 8.36844 77.6399 9.09146C79.4399 9.44223 81.2099 9.96482 82.8974 10.652C84.5549 11.325 86.1599 12.1482 87.6524 13.1146C89.1374 14.0739 90.5324 15.1691 91.7924 16.379C93.0599 17.5888 94.2074 18.9203 95.2124 20.3305C95.3099 20.4737 95.2724 20.667 95.1224 20.76C95.0699 20.7887 95.0099 20.8102 94.9424 20.8102Z" fill="#E1B168"/>
<path d="M73.1325 43.2454C71.445 43.2454 69.8025 42.9018 68.25 42.2289C67.0875 42.7443 65.8575 43.002 64.59 43.002C59.775 43.002 55.8525 39.258 55.8525 34.6622C55.8525 30.7536 58.725 27.3532 62.7075 26.5228C64.7925 22.8576 68.7675 20.5955 73.1325 20.5955C79.38 20.5955 84.5325 25.2128 84.9525 31.1473C86.925 32.3142 88.14 34.383 88.14 36.595C88.14 40.1314 85.125 43.0092 81.42 43.0092C80.2725 43.0092 79.14 42.7228 78.1275 42.1788C76.5525 42.8875 74.865 43.2454 73.1325 43.2454ZM68.25 41.4414L68.415 41.513C71.4675 42.8803 74.97 42.8588 77.9925 41.4486L78.1725 41.3627L78.345 41.4629C79.2825 41.9998 80.3475 42.2861 81.4275 42.2861C84.72 42.2861 87.3975 39.7305 87.3975 36.5879C87.3975 34.562 86.25 32.6721 84.405 31.6556L84.225 31.5553L84.2175 31.3621C83.9175 25.721 79.05 21.297 73.1325 21.297C68.985 21.297 65.2125 23.4804 63.285 26.9953L63.2025 27.1456L63.03 27.1814C59.31 27.8901 56.6025 31.0328 56.6025 34.655C56.6025 38.8572 60.1875 42.279 64.59 42.279C65.805 42.279 66.975 42.0141 68.085 41.5059L68.25 41.4414Z" fill="#E1B168"/>
<path d="M80.7975 49.9316H63.2025V42.1859L63.6225 42.2361C63.99 42.279 64.2975 42.3005 64.59 42.3005C65.805 42.3005 66.975 42.0356 68.085 41.5273L68.25 41.4414L68.415 41.513C71.4675 42.8803 74.97 42.8589 77.9925 41.4486L78.1725 41.3627L78.345 41.4629C78.9975 41.8352 79.71 42.0857 80.4825 42.2074L80.7975 42.2575V49.9316V49.9316ZM63.9525 49.2157H80.0475V42.8589C79.3725 42.7228 78.7275 42.4938 78.135 42.1716C75.0075 43.5747 71.4075 43.5962 68.25 42.2361C67.0875 42.7515 65.8575 43.0092 64.59 43.0092C64.3875 43.0092 64.1775 43.002 63.9525 42.9806V49.2157V49.2157Z" fill="#E1B168"/>
<path d="M64.5375 32.2139C64.3275 32.2139 64.1625 32.0564 64.1625 31.8559C64.1625 27.1957 68.1375 23.4016 73.02 23.4016C73.23 23.4016 73.395 23.5591 73.395 23.7595C73.395 23.96 73.23 24.1174 73.02 24.1174C68.55 24.1174 64.9125 27.5894 64.9125 31.8559C64.9125 32.0564 64.7475 32.2139 64.5375 32.2139Z" fill="#E1B168"/>
<path d="M143.625 25.6061H93.0375C92.8275 25.6061 92.6625 25.4486 92.6625 25.2482C92.6625 25.0477 92.8275 24.8902 93.0375 24.8902H143.625C143.835 24.8902 144 25.0477 144 25.2482C144 25.4486 143.835 25.6061 143.625 25.6061Z" fill="#E1B168"/>
<path d="M143.625 45.6432H93.0375C92.8275 45.6432 92.6625 45.4857 92.6625 45.2853C92.6625 45.0849 92.8275 44.9274 93.0375 44.9274H143.625C143.835 44.9274 144 45.0849 144 45.2853C144 45.4857 143.835 45.6432 143.625 45.6432Z" fill="#E1B168"/>
<path d="M50.9625 25.6061H0.375C0.165 25.6061 0 25.4486 0 25.2482C0 25.0477 0.165 24.8902 0.375 24.8902H50.9625C51.1725 24.8902 51.3375 25.0477 51.3375 25.2482C51.3375 25.4486 51.165 25.6061 50.9625 25.6061Z" fill="#E1B168"/>
<path d="M50.9625 45.6432H0.375C0.165 45.6432 0 45.4857 0 45.2853C0 45.0849 0.165 44.9274 0.375 44.9274H50.9625C51.1725 44.9274 51.3375 45.0849 51.3375 45.2853C51.3375 45.4857 51.165 45.6432 50.9625 45.6432Z" fill="#E1B168"/>
<path d="M28.62 37.0316H15.645C14.625 37.0316 13.7925 36.237 13.7925 35.2635C13.7925 34.2899 14.625 33.4953 15.645 33.4953H29.64C29.85 33.4953 30.015 33.6528 30.015 33.8532C30.015 34.0536 29.85 34.2111 29.64 34.2111H15.645C15.0375 34.2111 14.5425 34.6836 14.5425 35.2635C14.5425 35.8433 15.0375 36.3158 15.645 36.3158H28.6125C28.8225 36.3158 28.9875 36.4733 28.9875 36.6737C28.9875 36.8742 28.8225 37.0316 28.62 37.0316Z" fill="#E1B168"/>
<path d="M7.39494 40.3172C3.45744 40.3172 0.247437 38.0551 0.247437 35.2704C0.247437 32.4857 3.44994 30.2235 7.39494 30.2235C11.3324 30.2235 14.5424 32.4857 14.5424 35.2704C14.5424 38.0551 11.3399 40.3172 7.39494 40.3172ZM7.39494 30.9322C3.86994 30.9322 0.997437 32.8794 0.997437 35.2632C0.997437 37.647 3.86994 39.5942 7.39494 39.5942C10.9199 39.5942 13.7924 37.647 13.7924 35.2632C13.7924 32.8794 10.9274 30.9322 7.39494 30.9322Z" fill="#E1B168"/>
<path d="M127.522 37.0317H114.555C114.345 37.0317 114.18 36.8742 114.18 36.6737C114.18 36.4733 114.345 36.3158 114.555 36.3158H127.522C128.13 36.3158 128.625 35.8433 128.625 35.2635C128.625 34.6836 128.13 34.2112 127.522 34.2112H113.527C113.317 34.2112 113.152 34.0537 113.152 33.8532C113.152 33.6528 113.317 33.4953 113.527 33.4953H127.522C128.542 33.4953 129.375 34.2899 129.375 35.2635C129.375 36.2371 128.542 37.0317 127.522 37.0317Z" fill="#E1B168"/>
<path d="M134.64 38.6135H132.135C130.2 38.6135 128.625 37.1102 128.625 35.2633C128.625 33.4164 130.2 31.9131 132.135 31.9131H134.64V38.6135ZM132.135 32.6361C130.612 32.6361 129.375 33.8173 129.375 35.2705C129.375 36.7237 130.612 37.9048 132.135 37.9048H133.89V32.6432H132.135V32.6361Z" fill="#E1B168"/>
<path d="M142.545 32.6362H134.272C134.062 32.6362 133.897 32.4787 133.897 32.2783C133.897 32.0778 134.062 31.9203 134.272 31.9203H142.545C142.755 31.9203 142.92 32.0778 142.92 32.2783C142.92 32.4787 142.747 32.6362 142.545 32.6362Z" fill="#E1B168"/>
<path d="M142.545 35.6214H134.272C134.062 35.6214 133.897 35.4639 133.897 35.2634C133.897 35.063 134.062 34.9055 134.272 34.9055H142.545C142.755 34.9055 142.92 35.063 142.92 35.2634C142.92 35.4639 142.747 35.6214 142.545 35.6214Z" fill="#E1B168"/>
<path d="M142.545 38.6137H134.272C134.062 38.6137 133.897 38.4562 133.897 38.2558C133.897 38.0553 134.062 37.8979 134.272 37.8979H142.545C142.755 37.8979 142.92 38.0553 142.92 38.2558C142.92 38.4562 142.747 38.6137 142.545 38.6137Z" fill="#E1B168"/>
<path d="M48.9376 40.3175H42.3826C42.1726 40.3175 42.0076 40.16 42.0076 39.9595C42.0076 39.7591 42.1726 39.6016 42.3826 39.6016H48.9376C49.1476 39.6016 49.3126 39.7591 49.3126 39.9595C49.3126 40.16 49.1476 40.3175 48.9376 40.3175Z" fill="#E1B168"/>
<path d="M48.615 34.9844H36.1725C35.9625 34.9844 35.7975 34.8269 35.7975 34.6264C35.7975 34.426 35.9625 34.2685 36.1725 34.2685H48.615C48.825 34.2685 48.99 34.426 48.99 34.6264C48.99 34.8269 48.825 34.9844 48.615 34.9844Z" fill="#E1B168"/>
<path d="M49.44 29.6511H42.885C42.675 29.6511 42.51 29.4936 42.51 29.2931C42.51 29.0927 42.675 28.9352 42.885 28.9352H49.44C49.65 28.9352 49.815 29.0927 49.815 29.2931C49.815 29.4936 49.65 29.6511 49.44 29.6511Z" fill="#E1B168"/>
<path d="M48.9301 37.6472H39.1951C38.9851 37.6472 38.8201 37.4897 38.8201 37.2893C38.8201 37.0889 38.9851 36.9314 39.1951 36.9314H48.9301C49.1401 36.9314 49.3051 37.0889 49.3051 37.2893C49.3051 37.4897 49.1326 37.6472 48.9301 37.6472Z" fill="#E1B168"/>
<path d="M48.8776 32.2785H39.1426C38.9326 32.2785 38.7676 32.121 38.7676 31.9206C38.7676 31.7201 38.9326 31.5626 39.1426 31.5626H48.8776C49.0876 31.5626 49.2526 31.7201 49.2526 31.9206C49.2526 32.121 49.0876 32.2785 48.8776 32.2785Z" fill="#E1B168"/>
<path d="M101.61 30.2882H95.0549C94.8449 30.2882 94.6799 30.1307 94.6799 29.9303C94.6799 29.7298 94.8449 29.5724 95.0549 29.5724H101.61C101.82 29.5724 101.985 29.7298 101.985 29.9303C101.985 30.1307 101.82 30.2882 101.61 30.2882Z" fill="#E1B168"/>
<path d="M107.828 35.6214H95.385C95.175 35.6214 95.01 35.4639 95.01 35.2634C95.01 35.063 95.175 34.9055 95.385 34.9055H107.828C108.038 34.9055 108.203 35.063 108.203 35.2634C108.203 35.4639 108.038 35.6214 107.828 35.6214Z" fill="#E1B168"/>
<path d="M101.107 40.9546H94.5525C94.3425 40.9546 94.1775 40.7971 94.1775 40.5967C94.1775 40.3962 94.3425 40.2387 94.5525 40.2387H101.107C101.317 40.2387 101.482 40.3962 101.482 40.5967C101.482 40.7971 101.317 40.9546 101.107 40.9546Z" fill="#E1B168"/>
<path d="M104.805 32.9584H95.0701C94.8601 32.9584 94.6951 32.8009 94.6951 32.6005C94.6951 32.4 94.8601 32.2426 95.0701 32.2426H104.805C105.015 32.2426 105.18 32.4 105.18 32.6005C105.18 32.8009 105.015 32.9584 104.805 32.9584Z" fill="#E1B168"/>
<path d="M104.857 38.3272H95.1224C94.9124 38.3272 94.7474 38.1697 94.7474 37.9692C94.7474 37.7688 94.9124 37.6113 95.1224 37.6113H104.857C105.067 37.6113 105.232 37.7688 105.232 37.9692C105.232 38.1697 105.06 38.3272 104.857 38.3272Z" fill="#E1B168"/>
<path d="M47.2575 53.1171L43.515 54.0334L42.9225 53.1386L44.4375 51.4277L42.15 51.9718L41.5575 51.0769L44.025 48.2421L44.595 49.1083L43.005 50.9051L45.405 50.3324L45.915 51.1056L44.31 52.9095L46.725 52.3225L47.2575 53.1171Z" fill="#E1B168"/>
<path d="M48.27 58.1282L47.685 58.6507L45.66 56.6034L48.3375 54.1981L50.3175 56.2025L49.7325 56.7251L48.465 55.4365L48 55.8445L49.1175 56.9756L48.555 57.4839L47.4375 56.3528L46.95 56.7895L48.27 58.1282Z" fill="#E1B168"/>
<path d="M51.6975 57.3908L52.515 58.0065L50.745 60.1398L52.1175 61.1778L51.6075 61.7934L49.4175 60.1398L51.6975 57.3908Z" fill="#E1B168"/>
<path d="M54.1725 63.175C53.985 62.8958 53.8875 62.5951 53.88 62.273C53.8725 61.9509 53.955 61.6359 54.1425 61.3281C54.3225 61.0202 54.5625 60.7912 54.855 60.6337C55.1475 60.4762 55.47 60.3974 55.8225 60.4118C56.1675 60.4189 56.5125 60.5191 56.8425 60.6981C57.135 60.8556 57.3675 61.0489 57.5475 61.278C57.7275 61.507 57.8325 61.7504 57.8775 62.0225L57 62.2014C56.9325 61.8506 56.7525 61.5929 56.46 61.4354C56.2875 61.3424 56.1075 61.2923 55.935 61.2923C55.755 61.2923 55.59 61.3352 55.44 61.4283C55.29 61.5213 55.1625 61.6502 55.0575 61.822C54.9525 61.9938 54.9 62.1656 54.9 62.3374C54.9 62.5092 54.9375 62.6667 55.035 62.8171C55.125 62.9602 55.26 63.0819 55.4325 63.175C55.725 63.3325 56.0475 63.354 56.4 63.2251L56.6775 64.034C56.415 64.1343 56.13 64.17 55.8375 64.1414C55.545 64.1128 55.2525 64.0197 54.96 63.8622C54.615 63.6833 54.3525 63.4542 54.1725 63.175Z" fill="#E1B168"/>
<path d="M59.2125 65.5517C58.98 65.3011 58.8225 65.0219 58.755 64.6998C58.6875 64.3848 58.7175 64.0627 58.8375 63.7334C58.9575 63.4041 59.1525 63.1392 59.4225 62.9388C59.685 62.7383 59.9925 62.6095 60.3375 62.5594C60.6825 62.5093 61.0425 62.5522 61.41 62.6739C61.7775 62.7956 62.0775 62.9889 62.31 63.2323C62.5425 63.4828 62.7 63.762 62.7675 64.0842C62.835 64.4063 62.805 64.7213 62.685 65.0506C62.565 65.3799 62.37 65.6448 62.1 65.8452C61.8375 66.0528 61.53 66.1745 61.185 66.2246C60.84 66.2747 60.48 66.2318 60.12 66.1101C59.745 65.9812 59.445 65.7951 59.2125 65.5517ZM60.9225 65.3799C61.095 65.3512 61.245 65.2797 61.3875 65.1651C61.5225 65.0506 61.6275 64.9003 61.695 64.7141C61.7625 64.528 61.785 64.349 61.755 64.1772C61.725 64.0054 61.6575 63.8551 61.545 63.7334C61.4325 63.6117 61.29 63.5115 61.1175 63.4542C60.945 63.3969 60.7725 63.3826 60.6 63.4113C60.4275 63.4399 60.2775 63.5115 60.135 63.626C59.9925 63.7405 59.895 63.8909 59.8275 64.077C59.76 64.2631 59.7375 64.4421 59.7675 64.6139C59.7975 64.7857 59.865 64.936 59.9775 65.0649C60.09 65.1938 60.2325 65.2868 60.405 65.3441C60.5775 65.4014 60.75 65.4085 60.9225 65.3799Z" fill="#E1B168"/>
<path d="M67.695 67.7637L67.98 65.9239L66.8025 67.2841L66.345 67.2197L65.6475 65.6376L65.355 67.4273L64.4025 67.2841L64.965 63.8193L65.8125 63.941L66.765 66.1315L68.3325 64.3132L69.18 64.4349L68.6325 67.8997L67.695 67.7637Z" fill="#E1B168"/>
<path d="M74.1375 67.1768L74.1525 67.9427L71.205 68L71.13 64.4923L74.01 64.435L74.025 65.201L72.1725 65.2368L72.1875 65.8309L73.8225 65.7951L73.8375 66.5396L72.2025 66.5754L72.2175 67.2197L74.1375 67.1768Z" fill="#E1B168"/>
<path d="M79.65 64.3491L78.5625 64.6283L78.345 63.8695L81.525 63.0534L81.7425 63.8122L80.655 64.0914L81.3975 66.7186L80.3925 66.9763L79.65 64.3491Z" fill="#E1B168"/>
<path d="M85.1775 65.2868C84.825 65.2653 84.51 65.1651 84.2325 64.979C83.9475 64.8 83.7375 64.5495 83.5875 64.2345C83.4375 63.9195 83.385 63.5974 83.4225 63.2752C83.46 62.9531 83.5875 62.6596 83.805 62.3947C84.0225 62.1299 84.3 61.9222 84.6525 61.7648C85.005 61.6073 85.3575 61.5428 85.71 61.5643C86.0625 61.5858 86.3775 61.686 86.655 61.8721C86.94 62.0583 87.15 62.3017 87.3 62.6238C87.45 62.9459 87.5025 63.2609 87.465 63.5831C87.4275 63.9052 87.3 64.1987 87.0825 64.4636C86.865 64.7284 86.5875 64.936 86.2275 65.0935C85.8825 65.2439 85.53 65.3083 85.1775 65.2868ZM86.28 64.0269C86.3775 63.8909 86.4375 63.7405 86.4525 63.5616C86.4675 63.3898 86.43 63.2108 86.3475 63.0318C86.265 62.8529 86.145 62.7097 86.0025 62.6095C85.86 62.5093 85.695 62.4448 85.5225 62.4305C85.35 62.4162 85.1775 62.4448 85.0125 62.5164C84.84 62.588 84.705 62.6954 84.6075 62.8314C84.51 62.9674 84.45 63.1177 84.435 63.2967C84.42 63.4757 84.4575 63.6475 84.54 63.8264C84.6225 64.0054 84.7425 64.1486 84.885 64.2488C85.0275 64.349 85.1925 64.4135 85.365 64.4278C85.5375 64.4421 85.71 64.4135 85.875 64.3419C86.0475 64.2703 86.1825 64.1629 86.28 64.0269Z" fill="#E1B168"/>
<path d="M93.2625 60.7339C92.9175 60.8055 92.5875 60.784 92.265 60.6838C91.9425 60.5836 91.665 60.3975 91.4325 60.1326C91.2 59.8677 91.0575 59.5742 91.005 59.2521C90.9525 58.93 90.99 58.615 91.125 58.3072C91.2525 57.9993 91.47 57.7201 91.77 57.4839C92.07 57.2477 92.385 57.0902 92.73 57.0186C93.075 56.947 93.405 56.9613 93.7275 57.0687C94.05 57.1761 94.3275 57.3551 94.56 57.6199C94.7925 57.8848 94.935 58.1783 94.9875 58.5004C95.04 58.8226 95.0025 59.1376 94.8675 59.4454C94.74 59.7532 94.5225 60.0324 94.2225 60.2686C93.93 60.512 93.6075 60.6623 93.2625 60.7339ZM93.9675 59.2378C94.0275 59.0803 94.035 58.9156 94.005 58.751C93.9675 58.5792 93.885 58.4217 93.75 58.2714C93.615 58.121 93.465 58.0136 93.3 57.9492C93.135 57.8848 92.9625 57.8705 92.79 57.8991C92.6175 57.9277 92.46 57.9993 92.3175 58.1139C92.175 58.2284 92.0775 58.3644 92.0175 58.5219C91.9575 58.6794 91.95 58.8441 91.98 59.0087C92.0175 59.1805 92.1 59.338 92.235 59.4883C92.37 59.6387 92.52 59.746 92.685 59.8105C92.8575 59.8749 93.0225 59.8892 93.195 59.8606C93.3675 59.8319 93.525 59.7604 93.6675 59.6458C93.81 59.5313 93.915 59.3953 93.9675 59.2378Z" fill="#E1B168"/>
<path d="M97.4025 56.7753C96.9825 56.8182 96.5625 56.6679 96.1425 56.3314L94.5825 55.0858L95.25 54.327L96.7875 55.5511C97.2375 55.9091 97.6125 55.9162 97.9125 55.5798C98.205 55.2433 98.13 54.8926 97.68 54.5346L96.1425 53.3105L96.8025 52.5588L98.3625 53.8044C98.7825 54.1409 99.0075 54.506 99.045 54.914C99.0825 55.3221 98.925 55.723 98.5725 56.1167C98.205 56.5176 97.8225 56.7323 97.4025 56.7753Z" fill="#E1B168"/>
<path d="M101.01 51.034L100.725 51.4993L101.565 51.9718L101.04 52.8308L97.8676 51.0626L98.715 49.6739C98.88 49.4018 99.075 49.1871 99.2925 49.0367C99.51 48.8864 99.7426 48.8077 99.9901 48.7933C100.23 48.779 100.478 48.8435 100.71 48.9723C100.943 49.1012 101.108 49.2658 101.22 49.4591C101.325 49.6595 101.37 49.8743 101.355 50.1248L102.75 50.0389L102.188 50.9553L101.01 51.034ZM99.7575 49.7956C99.6225 49.8385 99.5026 49.953 99.3901 50.1248L99.0976 50.6045L100.028 51.1199L100.32 50.6403C100.425 50.4613 100.47 50.311 100.44 50.175C100.418 50.0389 100.328 49.9316 100.178 49.8528C100.028 49.7741 99.8925 49.7526 99.7575 49.7956Z" fill="#E1B168"/>
<path d="M41.8875 15.9422C41.9325 16.293 42.1125 16.6724 42.4425 17.0733C42.4575 17.0804 42.45 17.1019 42.4275 17.1305C42.405 17.1592 42.3825 17.1663 42.3675 17.1592C42.1725 16.9873 41.9175 16.7726 41.6025 16.5006C41.2875 16.2357 41.0475 16.0424 40.8825 15.9207C40.8525 15.8992 40.8525 15.8778 40.875 15.8491C40.8975 15.8205 40.92 15.8133 40.95 15.8348C41.07 15.9207 41.2425 15.8205 41.4675 15.527C41.835 15.0903 42.2475 14.582 42.72 13.9807C42.96 13.6729 43.2075 13.3508 43.4625 13L43.8675 12.4631C44.025 12.2698 44.1225 12.1123 44.1675 12.0049C44.2125 11.8976 44.205 11.7973 44.145 11.7114C44.13 11.69 44.13 11.6685 44.145 11.6398C44.1675 11.6112 44.19 11.6112 44.205 11.6255C44.3625 11.7615 44.6025 11.962 44.9325 12.2197C45.2625 12.4774 45.5325 12.685 45.7425 12.8353C45.7575 12.8497 45.7575 12.864 45.735 12.8926C45.7125 12.9212 45.69 12.9356 45.675 12.9284C45.2175 12.685 44.8125 12.5848 44.4675 12.6349C44.1225 12.685 43.815 12.8711 43.56 13.2004C43.4475 13.3436 43.3725 13.4653 43.35 13.5512C43.32 13.6371 43.335 13.723 43.38 13.7946C43.4325 13.8662 43.53 13.9521 43.6725 14.0595L47.4225 16.744C47.5875 16.8656 47.7225 16.9372 47.8275 16.9587C47.925 16.9802 48.03 16.9587 48.1275 16.88C48.225 16.8084 48.36 16.6652 48.5175 16.4648C48.5325 16.4504 48.555 16.4504 48.585 16.4791C48.615 16.5006 48.63 16.522 48.615 16.5364C48.4725 16.7153 48.36 16.8585 48.27 16.9587L47.76 17.5887L47.295 18.1972C47.2125 18.3117 47.1 18.462 46.95 18.6553C46.9425 18.6625 46.92 18.6625 46.89 18.6338C46.86 18.6052 46.845 18.5909 46.8525 18.5837C47.01 18.3833 47.115 18.2258 47.16 18.1041C47.205 17.9896 47.205 17.8893 47.1525 17.7963C47.1 17.7032 46.995 17.603 46.83 17.4885L43.065 14.7968C42.9225 14.6966 42.81 14.6322 42.7275 14.6178C42.645 14.5964 42.5625 14.6107 42.48 14.6608C42.3975 14.7109 42.3075 14.804 42.195 14.94C41.9475 15.2621 41.85 15.5914 41.8875 15.9422Z" fill="#E1B168"/>
<path d="M55.095 10.6807C55.1175 10.7094 55.125 10.7308 55.11 10.7452C54.9375 10.8883 54.7875 11.0029 54.675 11.0816L54.105 11.5326L53.4525 12.0695C53.3625 12.1483 53.2425 12.2556 53.085 12.3773C53.07 12.3917 53.0475 12.3845 53.025 12.3487C53.0025 12.3201 52.995 12.2986 53.01 12.2843C53.205 12.1268 53.34 11.9979 53.4075 11.9049C53.475 11.8118 53.49 11.7116 53.46 11.6185C53.43 11.5255 53.3475 11.4038 53.2125 11.2463L51.6975 9.53535L49.035 11.6829L50.55 13.3939C50.6775 13.5442 50.7975 13.6373 50.8875 13.6874C50.9775 13.7303 51.0825 13.7303 51.195 13.6874C51.3075 13.6373 51.465 13.537 51.66 13.3795C51.6675 13.3724 51.69 13.3795 51.7125 13.4082C51.7425 13.4368 51.75 13.4583 51.735 13.4654C51.5625 13.6086 51.42 13.716 51.315 13.7876L50.6625 14.303L50.1 14.7683C50.01 14.8542 49.8675 14.9688 49.695 15.1048C49.6875 15.1119 49.665 15.1048 49.6425 15.0761C49.62 15.0475 49.6125 15.026 49.62 15.0189C49.8075 14.8685 49.935 14.7468 49.995 14.6466C50.0625 14.5536 50.0775 14.4533 50.0475 14.3603C50.0175 14.2601 49.935 14.1384 49.8 13.9952L46.7625 10.5662C46.6275 10.4159 46.515 10.3228 46.425 10.2799C46.335 10.2369 46.23 10.2369 46.1175 10.2799C46.005 10.3228 45.8625 10.4159 45.675 10.5662C45.6675 10.5734 45.645 10.5662 45.6225 10.5376C45.5925 10.5089 45.585 10.4875 45.6 10.4803L46.02 10.1582C46.2675 9.97919 46.455 9.82886 46.59 9.72148C46.77 9.57831 46.98 9.39934 47.22 9.18458L47.625 8.84813C47.6325 8.84097 47.655 8.84813 47.6775 8.87676C47.7 8.90539 47.7075 8.92687 47.7 8.93403C47.505 9.09152 47.3775 9.22038 47.3175 9.3206C47.25 9.42082 47.235 9.52104 47.265 9.62126C47.295 9.72148 47.3775 9.84318 47.505 9.99351L48.8475 11.504L51.51 9.35639L50.1675 7.84592C50.04 7.69558 49.92 7.60252 49.83 7.55241C49.7325 7.50946 49.6275 7.5023 49.515 7.54525C49.4025 7.5882 49.245 7.68843 49.05 7.84592C49.035 7.86023 49.0125 7.85307 48.99 7.81728C48.96 7.78865 48.96 7.76717 48.975 7.75285L49.35 7.45935C49.605 7.26607 49.83 7.09426 50.025 6.94393C50.1675 6.82939 50.3475 6.6719 50.58 6.47146L51 6.12068C51.015 6.10637 51.0375 6.11352 51.06 6.14932C51.09 6.17795 51.09 6.19943 51.075 6.21375C50.8875 6.36408 50.7675 6.48577 50.7 6.58599C50.64 6.67906 50.625 6.77928 50.655 6.87234C50.685 6.9654 50.7675 7.0871 50.895 7.23743L53.9325 10.6664C54.06 10.8168 54.18 10.9098 54.27 10.9599C54.3675 11.01 54.465 11.01 54.57 10.9599C54.675 10.917 54.825 10.8168 55.0125 10.6664C55.05 10.6449 55.0725 10.6521 55.095 10.6807Z" fill="#E1B168"/>
<path d="M58.8225 7.19449C58.8375 7.18733 58.86 7.18017 58.8825 7.18017C58.905 7.18017 58.9125 7.18733 58.92 7.18733C59.1075 7.65264 59.295 8.06069 59.4975 8.42578C59.52 8.46873 59.535 8.51168 59.5275 8.54032C59.52 8.56895 59.49 8.59759 59.4375 8.62622L55.545 10.6163C55.53 10.6235 55.5075 10.6163 55.4925 10.5805C55.47 10.5447 55.47 10.5233 55.4925 10.5161C55.695 10.4087 55.8375 10.3228 55.9125 10.2441C55.9875 10.1653 56.0175 10.0794 56.01 9.9792C56.0025 9.87898 55.9425 9.74297 55.845 9.57116L53.625 5.61243C53.5275 5.44062 53.445 5.32609 53.3625 5.26166C53.2875 5.19723 53.19 5.17575 53.0775 5.19007C52.965 5.21155 52.8075 5.26882 52.6125 5.36904C52.5975 5.3762 52.575 5.36904 52.56 5.33324C52.5375 5.29745 52.5375 5.27598 52.56 5.26882L56.2875 3.36462C56.3475 3.33598 56.3925 3.34314 56.4225 3.39325L57.0675 4.49568C57.075 4.51 57.06 4.52432 57.03 4.54579C57 4.56727 56.9775 4.57443 56.9625 4.56011C56.4525 3.98026 55.86 3.87288 55.17 4.22366L54.81 4.40978C54.5925 4.51716 54.465 4.6317 54.4125 4.75339C54.3675 4.87509 54.39 5.02542 54.4875 5.19723L55.47 6.94394L56.3325 6.5001C56.9925 6.16365 57.2025 5.78424 56.9625 5.36188C56.955 5.34756 56.9625 5.32609 57 5.31177C57.0375 5.29745 57.0525 5.29745 57.06 5.31177L57.4725 6.06343L57.705 6.46431C57.8175 6.64328 57.9075 6.78645 57.975 6.90099C57.9825 6.9153 57.9675 6.92962 57.93 6.94394C57.8925 6.96541 57.87 6.96542 57.87 6.95826C57.5925 6.46431 57.12 6.39272 56.4525 6.73634L55.575 7.1587L56.6625 9.09869C56.7675 9.28481 56.88 9.39935 56.9925 9.43515C57.1125 9.47094 57.2625 9.44231 57.45 9.34208L57.8925 9.12017C58.695 8.71212 58.995 8.08216 58.7925 7.23028C58.785 7.21597 58.8 7.20881 58.8225 7.19449Z" fill="#E1B168"/>
<path d="M61.68 1.98284C61.4775 2.27635 61.365 2.67723 61.3425 3.1855C61.3425 3.19981 61.3275 3.20697 61.29 3.21413C61.2525 3.22129 61.23 3.21413 61.23 3.19981C61.2 2.94926 61.1475 2.62712 61.0875 2.2334C61.0275 1.83967 60.975 1.54617 60.9225 1.34572C60.915 1.31709 60.93 1.29561 60.9675 1.28846C61.005 1.2813 61.0275 1.28846 61.035 1.32425C61.0725 1.46026 61.2675 1.4889 61.6425 1.41015C62.2125 1.30277 62.88 1.16676 63.6375 0.994951C64.0275 0.909047 64.44 0.808826 64.875 0.701447L65.5425 0.543956C65.7975 0.486687 65.9775 0.429418 66.0825 0.372149C66.1875 0.31488 66.2475 0.236135 66.2625 0.135914C66.2625 0.107279 66.2775 0.0929621 66.315 0.0858034C66.345 0.0786448 66.3675 0.0858034 66.375 0.114438C66.405 0.31488 66.4575 0.615543 66.5325 1.01643C66.6075 1.41731 66.675 1.73945 66.735 1.99C66.7425 2.01148 66.7275 2.0258 66.69 2.03295C66.6525 2.04011 66.63 2.03295 66.615 2.01864C66.4275 1.54617 66.1875 1.22403 65.8875 1.05222C65.5875 0.873254 65.2275 0.837461 64.815 0.923364C64.6275 0.966316 64.5 1.00927 64.4175 1.05938C64.335 1.10949 64.29 1.18108 64.2825 1.26698C64.275 1.35288 64.29 1.48174 64.3275 1.65355L65.385 6.01316C65.43 6.20644 65.49 6.34246 65.55 6.42836C65.61 6.5071 65.7075 6.55006 65.8275 6.55722C65.955 6.56437 66.15 6.53574 66.405 6.47847C66.4275 6.47131 66.435 6.49279 66.45 6.52858C66.4575 6.56437 66.45 6.58585 66.435 6.59301C66.2025 6.64312 66.0225 6.67891 65.8875 6.70755L65.07 6.87935L64.2975 7.05832C64.1625 7.09411 63.9675 7.14422 63.7275 7.19433C63.7125 7.19433 63.705 7.18002 63.6975 7.14422C63.69 7.10843 63.69 7.08695 63.705 7.08695C63.96 7.02969 64.1475 6.97242 64.26 6.91515C64.3725 6.85788 64.44 6.77913 64.4625 6.67891C64.485 6.57869 64.47 6.43552 64.425 6.24224L63.36 1.86831C63.3225 1.70366 63.2775 1.58912 63.225 1.51753C63.1725 1.44595 63.0975 1.41015 63.0075 1.39583C62.9175 1.38152 62.775 1.39583 62.6025 1.43879C62.19 1.49606 61.89 1.68934 61.68 1.98284Z" fill="#E1B168"/>
<path d="M74.505 5.97028C74.505 6.00607 74.49 6.02755 74.4525 6.02755C74.325 6.0347 74.115 6.0347 73.83 6.02755C73.545 6.02039 73.335 6.02755 73.2075 6.02755C73.035 6.0347 72.84 6.04902 72.6075 6.06334C72.375 6.08481 72.2025 6.09913 72.0675 6.09913C72.0375 6.09913 72.0225 6.07766 72.0225 6.04186C72.0225 6.00607 72.0375 5.98459 72.06 5.98459C72.255 5.97743 72.3975 5.9488 72.4875 5.90585C72.5775 5.8629 72.6225 5.79131 72.615 5.69109C72.6075 5.59087 72.5475 5.43338 72.4275 5.2043L71.25 3.11398L69.4125 3.17125L68.6925 4.875C68.61 5.06829 68.5725 5.24725 68.58 5.40474C68.5875 5.63382 68.6775 5.79847 68.85 5.91301C69.0225 6.02039 69.2625 6.07766 69.57 6.06334C69.6 6.06334 69.6225 6.07766 69.6225 6.12061C69.6225 6.1564 69.6075 6.17788 69.5775 6.17788C69.4575 6.18504 69.2775 6.18504 69.045 6.17788C68.79 6.17072 68.565 6.17788 68.37 6.17788C68.19 6.18504 67.9725 6.19935 67.7325 6.22083C67.515 6.2423 67.335 6.25662 67.1925 6.25662C67.1625 6.25662 67.14 6.2423 67.14 6.19935C67.14 6.16356 67.155 6.14208 67.1925 6.14208C67.38 6.13492 67.5375 6.09197 67.665 6.02039C67.7925 5.94164 67.9125 5.81279 68.025 5.62666C68.145 5.44054 68.2725 5.16135 68.43 4.7891L70.44 0.0214454C70.47 0.0142868 70.5 -3.05176e-05 70.5525 -3.05176e-05C70.5975 -3.05176e-05 70.6275 0.00712812 70.635 0.028604L73.2975 4.73899C73.5525 5.19714 73.7625 5.51212 73.9275 5.67677C74.0925 5.84142 74.265 5.92017 74.4525 5.91301C74.4825 5.91301 74.4975 5.92732 74.505 5.97028ZM69.525 2.93501L71.13 2.8849L70.23 1.28137L69.525 2.93501Z" fill="#E1B168"/>
<path d="M76.7175 2.0474C76.8075 2.24784 76.935 2.42681 77.1 2.59145C77.2575 2.7561 77.4825 2.94939 77.7675 3.18562C78.075 3.44333 78.315 3.65809 78.4875 3.83706C78.66 4.01602 78.795 4.22362 78.9 4.45986C78.9975 4.6961 79.0275 4.95381 78.975 5.24015C78.9225 5.56945 78.78 5.84148 78.5625 6.07055C78.345 6.29963 78.06 6.45712 77.7075 6.55018C77.355 6.64325 76.9725 6.65756 76.56 6.59314C76.275 6.55018 75.9975 6.47144 75.7125 6.3569C75.4275 6.24236 75.2175 6.12067 75.075 5.99181C75.0225 5.9417 75 5.87727 75.0075 5.79137L75.195 4.32385V4.31669C75.2025 4.28805 75.2175 4.28089 75.255 4.28089C75.285 4.28089 75.3075 4.29521 75.3075 4.32385C75.435 4.88938 75.615 5.36185 75.8475 5.74126C76.0725 6.12067 76.41 6.34974 76.8525 6.41417C77.1375 6.45712 77.3925 6.42133 77.61 6.29963C77.8275 6.17793 77.97 5.9417 78.03 5.59093C78.075 5.31174 78.0525 5.05403 77.9625 4.82495C77.8725 4.59587 77.7375 4.39543 77.5725 4.22363C77.4075 4.05182 77.175 3.84422 76.8825 3.58651C76.5975 3.33595 76.3725 3.13551 76.215 2.9637C76.0575 2.7919 75.93 2.60577 75.84 2.38385C75.75 2.16194 75.72 1.91854 75.765 1.64651C75.825 1.31722 75.9675 1.05235 76.2 0.851904C76.4325 0.651462 76.7175 0.522607 77.0475 0.458179C77.3775 0.393751 77.715 0.386593 78.0525 0.443862C78.2775 0.479655 78.5025 0.536924 78.72 0.60851C78.9375 0.687256 79.125 0.766001 79.2675 0.851904C79.3275 0.880539 79.3575 0.909173 79.3725 0.944967C79.3875 0.973601 79.395 1.01655 79.3875 1.0595L79.2 2.36954C79.2 2.39101 79.1775 2.39817 79.14 2.40533C79.1025 2.41249 79.08 2.39817 79.08 2.36954C79.0125 1.96149 78.8925 1.58209 78.72 1.23131C78.5475 0.880539 78.24 0.672938 77.79 0.601352C77.49 0.5584 77.235 0.601352 77.0325 0.737366C76.83 0.87338 76.7025 1.08814 76.65 1.37449C76.5975 1.62504 76.6275 1.8398 76.7175 2.0474Z" fill="#E1B168"/>
<path d="M81.9675 1.95427C81.63 2.09744 81.3075 2.37663 81 2.79183C80.9925 2.80615 80.9775 2.80615 80.94 2.79183C80.9025 2.77751 80.895 2.76319 80.895 2.74888C81.0075 2.5198 81.15 2.2263 81.33 1.86121C81.51 1.49611 81.6225 1.22409 81.6975 1.0308C81.7125 1.00217 81.735 0.987851 81.765 1.00217C81.8025 1.01649 81.81 1.03796 81.8025 1.0666C81.75 1.20261 81.9075 1.33147 82.26 1.45316C82.8 1.66076 83.4375 1.88984 84.1725 2.14039C84.5475 2.26925 84.9525 2.3981 85.3725 2.53412L86.025 2.74888C86.265 2.83478 86.4525 2.87773 86.5725 2.88489C86.6925 2.89205 86.79 2.85626 86.8575 2.77751C86.8725 2.75604 86.895 2.74888 86.925 2.76319C86.955 2.77751 86.97 2.79183 86.9625 2.8133C86.8725 2.99227 86.745 3.27862 86.58 3.65087C86.415 4.03027 86.2875 4.3381 86.1975 4.57433C86.19 4.59581 86.1675 4.59581 86.1375 4.58149C86.1 4.56717 86.085 4.55285 86.085 4.53138C86.1975 4.03743 86.175 3.64371 86.025 3.34304C85.875 3.04238 85.5975 2.82046 85.1925 2.68445C85.0125 2.62002 84.8775 2.59139 84.78 2.59139C84.6825 2.59139 84.6075 2.62718 84.5475 2.69161C84.4875 2.75604 84.4275 2.87057 84.3675 3.03522L82.7775 7.2445C82.71 7.43063 82.6725 7.5738 82.68 7.67402C82.6875 7.77424 82.74 7.85299 82.845 7.92457C82.95 7.99616 83.1225 8.07491 83.3775 8.16081C83.4 8.16797 83.4 8.18944 83.385 8.22524C83.37 8.26103 83.355 8.27535 83.3325 8.26819C83.1075 8.18944 82.935 8.12502 82.8075 8.07491L82.0275 7.79572L81.2775 7.54517C81.1425 7.50221 80.955 7.44495 80.715 7.3662C80.7 7.35904 80.7 7.33757 80.715 7.30177C80.73 7.26598 80.745 7.25166 80.7525 7.25166C81 7.33757 81.1875 7.38768 81.3225 7.39483C81.45 7.40199 81.555 7.37336 81.63 7.30177C81.705 7.23019 81.78 7.10133 81.8475 6.91521L83.445 2.68445C83.505 2.52696 83.535 2.40526 83.5275 2.31936C83.52 2.23345 83.4825 2.16187 83.415 2.1046C83.34 2.04733 83.22 1.99006 83.0475 1.92563C82.6725 1.81109 82.305 1.81109 81.9675 1.95427Z" fill="#E1B168"/>
<path d="M89.925 9.89329C89.94 9.90045 89.955 9.91477 89.9625 9.93624C89.97 9.95772 89.9775 9.96488 89.97 9.97204C89.6475 10.3658 89.3775 10.7309 89.16 11.0816C89.13 11.1246 89.1075 11.1532 89.0775 11.1604C89.0475 11.1675 89.01 11.1604 88.9575 11.1317L85.155 8.9913C85.14 8.98415 85.14 8.96267 85.1625 8.92688C85.185 8.89108 85.2 8.88392 85.2225 8.89108C85.4175 9.00562 85.575 9.07005 85.68 9.09152C85.785 9.113 85.8825 9.09152 85.965 9.03426C86.0475 8.96983 86.1375 8.85529 86.2425 8.69064L88.635 4.81782C88.74 4.65317 88.8 4.51715 88.815 4.42409C88.83 4.33103 88.8 4.23797 88.725 4.15206C88.65 4.06616 88.515 3.9731 88.3275 3.86572C88.3125 3.85856 88.3125 3.83708 88.335 3.80129C88.3575 3.76549 88.3725 3.75834 88.395 3.7655L92.04 5.82003C92.1 5.85582 92.115 5.89161 92.0775 5.94172L91.425 7.03699C91.4175 7.05131 91.395 7.04415 91.365 7.03699C91.3275 7.02268 91.3125 7.00836 91.32 6.98688C91.575 6.27102 91.365 5.72696 90.69 5.34755L90.3375 5.15427C90.1275 5.03257 89.955 4.98962 89.8275 5.0111C89.6925 5.03257 89.5725 5.1328 89.4675 5.3046L88.41 7.00836L89.25 7.48083C89.895 7.84592 90.345 7.81729 90.5925 7.40209C90.6 7.38777 90.6225 7.38777 90.66 7.40209C90.69 7.42356 90.705 7.43788 90.69 7.4522L90.2325 8.17522L90 8.5761C89.9025 8.76223 89.82 8.91256 89.7525 9.01994C89.745 9.03426 89.7225 9.0271 89.6925 9.00562C89.655 8.98415 89.64 8.96983 89.6475 8.96267C89.94 8.48304 89.7675 8.06068 89.115 7.68843L88.2825 7.22312L87.1125 9.12016C87 9.30628 86.955 9.44946 86.985 9.564C87.015 9.67853 87.12 9.78591 87.3075 9.89329L87.735 10.1367C88.515 10.5805 89.235 10.4946 89.895 9.88613C89.8875 9.87898 89.9025 9.88613 89.925 9.89329Z" fill="#E1B168"/>
<path d="M94.845 15.8707C94.815 15.8993 94.7925 15.8993 94.7625 15.8778C94.665 15.7919 94.515 15.6559 94.3125 15.4698C94.11 15.2765 93.96 15.1405 93.8625 15.0546C93.735 14.9472 93.585 14.8255 93.405 14.6823C93.225 14.5463 93.09 14.4318 92.9925 14.353C92.97 14.3387 92.9775 14.3101 93 14.2815C93.03 14.2528 93.0525 14.2457 93.075 14.2671C93.2175 14.396 93.345 14.4676 93.4425 14.4962C93.54 14.5249 93.6225 14.5034 93.69 14.4318C93.7575 14.3602 93.8325 14.2027 93.9075 13.9522L94.5825 11.6686L93.2175 10.4874L91.455 11.2319C91.2525 11.3178 91.095 11.418 90.99 11.5397C90.8325 11.7044 90.7725 11.8905 90.8175 12.0838C90.8625 12.277 90.9975 12.4703 91.2225 12.6708C91.245 12.6922 91.245 12.7209 91.2225 12.7495C91.1925 12.7781 91.17 12.7781 91.1475 12.7567C91.0575 12.6779 90.93 12.5634 90.765 12.4059C90.585 12.2341 90.42 12.0838 90.285 11.9621C90.15 11.8475 89.985 11.7115 89.7975 11.5683C89.625 11.4395 89.49 11.3321 89.385 11.239C89.3625 11.2176 89.3625 11.1889 89.385 11.1603C89.415 11.1317 89.4375 11.1245 89.46 11.146C89.6025 11.2677 89.745 11.3464 89.8875 11.3751C90.03 11.4037 90.2175 11.3894 90.435 11.3321C90.6525 11.2748 90.9525 11.1603 91.335 11.0028L96.255 8.91964C96.2775 8.91248 96.3076 8.9268 96.3451 8.95543C96.3826 8.98407 96.39 9.0127 96.3825 9.02702L94.86 14.1812C94.71 14.6823 94.635 15.0403 94.6275 15.2694C94.6275 15.4984 94.6875 15.6702 94.83 15.7919C94.8675 15.8134 94.8675 15.842 94.845 15.8707ZM93.48 10.3872L94.6725 11.418L95.19 9.6713L93.48 10.3872Z" fill="#E1B168"/>
<path d="M99.3374 12.7567C98.9699 12.6994 98.5424 12.7567 98.0474 12.9428C98.0399 12.95 98.0174 12.9428 97.9949 12.9142C97.9724 12.8856 97.9724 12.8641 97.9874 12.8569C98.2124 12.7281 98.5049 12.5563 98.8649 12.3415C99.2174 12.1267 99.4799 11.9621 99.6449 11.8404C99.6749 11.8189 99.6974 11.8261 99.7199 11.8547C99.7424 11.8833 99.7424 11.9048 99.7124 11.9263C99.5924 12.0122 99.6449 12.1983 99.8699 12.4918C100.2 12.95 100.605 13.4797 101.07 14.0739C101.31 14.3817 101.565 14.7039 101.85 15.0332L102.27 15.5557C102.427 15.7562 102.547 15.885 102.645 15.9566C102.742 16.0282 102.84 16.0497 102.945 16.0139C102.967 16.0067 102.997 16.0139 103.012 16.0354C103.035 16.064 103.027 16.0783 103.012 16.0998C102.832 16.2072 102.562 16.3718 102.21 16.6009C101.857 16.83 101.572 17.0161 101.362 17.1664C101.347 17.1807 101.325 17.1664 101.302 17.1378C101.28 17.1092 101.272 17.0877 101.287 17.0734C101.662 16.7226 101.88 16.379 101.925 16.0497C101.97 15.7204 101.872 15.3839 101.61 15.0618C101.497 14.9186 101.4 14.8184 101.317 14.7683C101.235 14.7182 101.152 14.7039 101.062 14.7325C100.972 14.7611 100.86 14.8184 100.71 14.9258L96.9524 17.6031C96.7874 17.7248 96.6749 17.825 96.6224 17.9109C96.5699 17.9968 96.5699 18.0971 96.6149 18.2116C96.6599 18.3261 96.7649 18.4836 96.9224 18.6841C96.9374 18.6984 96.9224 18.7199 96.8924 18.7413C96.8624 18.7628 96.8399 18.77 96.8249 18.7556C96.6824 18.5767 96.5774 18.4263 96.4949 18.319L96.0074 17.6747L95.5274 17.0734C95.4374 16.966 95.3174 16.8228 95.1674 16.6295C95.1599 16.6224 95.1749 16.6009 95.2049 16.5794C95.2349 16.5579 95.2574 16.5508 95.2649 16.5579C95.4224 16.7584 95.5499 16.9016 95.6549 16.9731C95.7599 17.0519 95.8574 17.0805 95.9624 17.0519C96.0674 17.0304 96.2024 16.9588 96.3674 16.8443L100.14 14.1598C100.282 14.0596 100.372 13.9737 100.417 13.9021C100.462 13.8305 100.47 13.7518 100.447 13.6659C100.425 13.5799 100.357 13.4654 100.245 13.3222C100.005 13.0001 99.7049 12.814 99.3374 12.7567Z" fill="#E1B168"/>
</svg>
